<svg width="787" height="600" xmlns="http://www.w3.org/2000/svg">
 <!-- Created with Method Draw - http://github.com/duopixel/Method-Draw/ -->

 <g>
  <title>background</title>
  <rect fill="none" id="canvas_background" height="602" width="789" y="-1" x="-1"/>
 </g>
 <g>
  <title>Layer 1</title>
  <g stroke="null" id="svg_23">
   <g stroke="null" transform="matrix(1.537353443548908,0,0,1.537353443548908,0.7891201643511933,-2236.345464343893) " id="svg_5">
    <g stroke="null" id="svg_6">
     <path stroke="null" id="svg_7" d="m466.4867,1454.83173l-422,0c-24.782,0 -45,20.196 -45,45l0,300c0,24.72 20.128,45 45,45l422,0c24.72,0 45,-20.128 45,-45l0,-300c0,-24.72 -20.128,-45 -45,-45zm-6.214,30l-203.832,203.833l-205.595,-203.833l409.427,0zm-430.786,308.788l0,-287.719l144.479,143.24l-144.479,144.479zm21.213,21.212l144.57,-144.57l50.657,50.222c5.864,5.814 15.327,5.795 21.167,-0.046l49.393,-49.393l143.787,143.787l-409.574,0zm430.787,-21.213l-143.787,-143.787l143.787,-143.788l0,287.575z"/>
    </g>
   </g>
   <g stroke="null" transform="matrix(1.537353443548908,0,0,1.537353443548908,0.7891201643511933,-2236.345464343893) " id="svg_8"/>
   <g stroke="null" transform="matrix(1.537353443548908,0,0,1.537353443548908,0.7891201643511933,-2236.345464343893) " id="svg_9"/>
   <g stroke="null" transform="matrix(1.537353443548908,0,0,1.537353443548908,0.7891201643511933,-2236.345464343893) " id="svg_10"/>
   <g stroke="null" transform="matrix(1.537353443548908,0,0,1.537353443548908,0.7891201643511933,-2236.345464343893) " id="svg_11"/>
   <g stroke="null" transform="matrix(1.537353443548908,0,0,1.537353443548908,0.7891201643511933,-2236.345464343893) " id="svg_12"/>
   <g stroke="null" transform="matrix(1.537353443548908,0,0,1.537353443548908,0.7891201643511933,-2236.345464343893) " id="svg_13"/>
   <g stroke="null" transform="matrix(1.537353443548908,0,0,1.537353443548908,0.7891201643511933,-2236.345464343893) " id="svg_14"/>
   <g stroke="null" transform="matrix(1.537353443548908,0,0,1.537353443548908,0.7891201643511933,-2236.345464343893) " id="svg_15"/>
   <g stroke="null" transform="matrix(1.537353443548908,0,0,1.537353443548908,0.7891201643511933,-2236.345464343893) " id="svg_16"/>
   <g stroke="null" transform="matrix(1.537353443548908,0,0,1.537353443548908,0.7891201643511933,-2236.345464343893) " id="svg_17"/>
   <g stroke="null" transform="matrix(1.537353443548908,0,0,1.537353443548908,0.7891201643511933,-2236.345464343893) " id="svg_18"/>
   <g stroke="null" transform="matrix(1.537353443548908,0,0,1.537353443548908,0.7891201643511933,-2236.345464343893) " id="svg_19"/>
   <g stroke="null" transform="matrix(1.537353443548908,0,0,1.537353443548908,0.7891201643511933,-2236.345464343893) " id="svg_20"/>
   <g stroke="null" transform="matrix(1.537353443548908,0,0,1.537353443548908,0.7891201643511933,-2236.345464343893) " id="svg_21"/>
   <g stroke="null" transform="matrix(1.537353443548908,0,0,1.537353443548908,0.7891201643511933,-2236.345464343893) " id="svg_22"/>
  </g>
 </g>
</svg>